HIERARCHY
ROOT joint_Root
{
	OFFSET 0.0 0.0 0.0
	CHANNELS 6 Xposition Yposition Zposition Zrotation Xrotation Yrotation 
	JOINT Hips
	{
		OFFSET 4.5925 91.4895 -427.239
		CHANNELS 6 Xposition Yposition Zposition Zrotation Xrotation Yrotation 
		JOINT Spine
		{
			OFFSET 15.7357 0.0 0.0
			CHANNELS 6 Xposition Yposition Zposition Zrotation Xrotation Yrotation 
			JOINT Chest
			{
				OFFSET 8.98455 -0.406207 0.0
				CHANNELS 6 Xposition Yposition Zposition Zrotation Xrotation Yrotation 
				JOINT Neck
				{
					OFFSET 16.3773 0.0 0.0
					CHANNELS 6 Xposition Yposition Zposition Zrotation Xrotation Yrotation 
					JOINT Head
					{
						OFFSET 6.45672 0.0 0.0
						CHANNELS 6 Xposition Yposition Zposition Zrotation Xrotation Yrotation 
						End Site
						{
							OFFSET 0.0 0.0 0.0
						}
					}
				}
				JOINT Shoulder_L
				{
					OFFSET 12.9942 -0.242716 4.98039
					CHANNELS 6 Xposition Yposition Zposition Zrotation Xrotation Yrotation 
					JOINT UpperArm_L
					{
						OFFSET 5.34809 0.0 0.0
						CHANNELS 6 Xposition Yposition Zposition Zrotation Xrotation Yrotation 
						JOINT LowerArm_L
						{
							OFFSET 24.3286 1.87007e-05 0.0
							CHANNELS 6 Xposition Yposition Zposition Zrotation Xrotation Yrotation 
							JOINT Hand_L
							{
								OFFSET 22.2916 0.0 0.0
								CHANNELS 6 Xposition Yposition Zposition Zrotation Xrotation Yrotation 
								End Site
								{
									OFFSET 0.0 0.0 0.0
								}
							}
						}
					}
				}
				JOINT Shoulder_R
				{
					OFFSET 12.9945 -0.242716 -4.98039
					CHANNELS 6 Xposition Yposition Zposition Zrotation Xrotation Yrotation 
					JOINT UpperArm_R
					{
						OFFSET -5.34813 0.0 0.0
						CHANNELS 6 Xposition Yposition Zposition Zrotation Xrotation Yrotation 
						JOINT LowerArm_R
						{
							OFFSET -24.3289 0.000322201 0.0
							CHANNELS 6 Xposition Yposition Zposition Zrotation Xrotation Yrotation 
							JOINT Hand_R
							{
								OFFSET -22.2915 -0.000108084 0.0
								CHANNELS 6 Xposition Yposition Zposition Zrotation Xrotation Yrotation 
								End Site
								{
									OFFSET 0.0 0.0 0.0
								}
							}
						}
					}
				}
			}
		}
		JOINT UpperLeg_L
		{
			OFFSET -2.19248 -6.46944 0.0
			CHANNELS 6 Xposition Yposition Zposition Zrotation Xrotation Yrotation 
			JOINT LowerLeg_L
			{
				OFFSET 39.0811 0.0 -1.23785e-05
				CHANNELS 6 Xposition Yposition Zposition Zrotation Xrotation Yrotation 
				JOINT Foot_L
				{
					OFFSET 40.9854 0.0 -1.26872e-05
					CHANNELS 6 Xposition Yposition Zposition Zrotation Xrotation Yrotation 
					JOINT Toes_L
					{
						OFFSET 11.7543 0.0 0.0
						CHANNELS 6 Xposition Yposition Zposition Zrotation Xrotation Yrotation 
						End Site
						{
							OFFSET 0.0 0.0 0.0
						}
					}
				}
			}
		}
		JOINT UpperLeg_R
		{
			OFFSET -2.19251 6.46944 0.0
			CHANNELS 6 Xposition Yposition Zposition Zrotation Xrotation Yrotation 
			JOINT LowerLeg_R
			{
				OFFSET -39.0811 -0.00228153 -0.0401928
				CHANNELS 6 Xposition Yposition Zposition Zrotation Xrotation Yrotation 
				JOINT Foot_R
				{
					OFFSET -40.9854 0.0 0.0
					CHANNELS 6 Xposition Yposition Zposition Zrotation Xrotation Yrotation 
					JOINT Toes_R
					{
						OFFSET -11.7543 0.0 0.0
						CHANNELS 6 Xposition Yposition Zposition Zrotation Xrotation Yrotation 
						End Site
						{
							OFFSET 0.0 0.0 0.0
						}
					}
				}
			}
		}
	}
}
MOTION
Frames:	4
Frame Time:	0.0333333
0.000000 0.000000 0.000000 0.000000 0.000000 -0.000000 134.252000 83.463900 138.476000 103.450000 -36.749200 11.864100 15.735700 0.000005 -0.000001 64.624600 82.898700 -63.526100 8.984550 -0.406207 -0.000000 5.148890 -6.098880 2.470540 16.377300 -0.000001 -0.000001 -0.918538 -19.036500 4.543580 6.456720 -0.000001 -0.000000 -2.666110 -22.745900 6.331170 12.994200 -0.242716 4.980390 -90.389500 1.191020 -71.891900 5.348090 -0.000007 -0.000001 -59.516200 46.993600 -17.737500 24.328600 0.000019 0.000005 25.218500 14.618600 -61.813500 22.291600 -0.000001 0.000005 -1.191660 5.580970 -10.263600 12.994500 -0.242716 -4.980390 86.641700 9.853610 -71.073700 -5.348130 -0.000001 -0.000004 -56.196900 40.572300 -9.598830 -24.328900 0.000322 -0.000009 -2.884610 -0.169194 -86.670800 -22.291500 -0.000108 -0.000004 19.877000 5.657300 -15.756600 -2.192480 -6.469440 -0.000000 -175.987000 -8.883480 -12.291500 39.081100 -0.000007 -0.000012 -0.224040 0.031987 81.876600 40.985400 -0.000006 -0.000013 8.547390 -15.932100 -39.566400 11.754300 -0.000000 0.000003 -0.008175 -0.089467 -20.220100 -2.192510 6.469440 -0.000001 -167.583000 13.824000 160.534000 -39.081100 -0.002282 -0.040193 -0.000815 0.004395 42.909500 -40.985400 0.000008 0.000006 30.790800 -11.017600 -72.633300 -11.754300 -0.000006 -0.000006 -0.010212 -0.105215 -20.860100
0.000000 0.000000 0.000000 0.000000 0.000000 -0.000000 131.287000 85.108400 140.764000 107.039000 -44.946300 14.419600 15.735700 0.000005 -0.000001 76.015700 83.362900 -76.093000 8.984550 -0.406207 -0.000000 5.118950 -3.199330 -0.011558 16.377300 -0.000001 -0.000001 -0.275103 -17.747800 5.068830 6.456720 -0.000001 -0.000000 -1.616280 -22.289100 7.397190 12.994200 -0.242716 4.980390 -90.416900 1.165520 -70.304300 5.348090 -0.000007 -0.000001 -57.584300 45.897600 -6.525620 24.328600 0.000019 0.000005 21.407600 10.945500 -64.168900 22.291600 -0.000001 0.000005 -0.963091 5.577200 -10.061600 12.994500 -0.242716 -4.980390 87.378300 8.626060 -73.026600 -5.348130 -0.000001 -0.000004 -54.881900 43.776100 -20.277100 -24.328900 0.000322 -0.000009 -1.186560 0.098968 -94.763300 -22.291500 -0.000108 -0.000004 19.836000 5.647830 -14.805500 -2.192480 -6.469440 -0.000000 -179.085000 -8.099750 -20.365100 39.081100 -0.000007 -0.000012 -0.356919 0.022996 86.314900 40.985400 -0.000006 -0.000013 12.796800 -17.432900 -44.060700 11.754300 -0.000000 0.000003 -0.008246 -0.090040 -20.243500 -2.192510 6.469440 -0.000001 -170.304000 14.005400 167.254000 -39.081100 -0.002282 -0.040193 0.053680 -0.065303 37.657800 -40.985400 0.000008 0.000006 31.626300 -2.098930 -74.898400 -11.754300 -0.000006 -0.000006 -0.010681 -0.108655 -21.000900
0.000000 0.000000 0.000000 0.000000 0.000000 -0.000000 128.682000 87.178300 142.901000 113.336000 -54.865800 18.114300 15.735700 0.000005 -0.000001 94.410100 84.004500 -95.869000 8.984550 -0.406207 -0.000000 4.203920 0.965915 -2.949990 16.377300 -0.000001 -0.000001 0.059613 -15.932400 5.064050 6.456720 -0.000001 -0.000000 -1.163220 -22.135300 7.697260 12.994200 -0.242716 4.980390 -89.823300 -0.439205 -68.161600 5.348090 -0.000007 -0.000001 -57.930200 44.773200 4.472670 24.328600 0.000019 0.000005 15.234100 6.455530 -67.574600 22.291600 -0.000001 0.000005 -1.109130 5.574160 -9.901040 12.994500 -0.242716 -4.980390 88.385400 6.250260 -75.490400 -5.348130 -0.000001 -0.000004 -54.789300 45.443500 -29.472100 -24.328900 0.000322 -0.000009 -1.378710 0.290415 -101.838000 -22.291500 -0.000108 -0.000004 19.764500 5.633810 -13.624500 -2.192480 -6.469440 -0.000000 178.067000 -8.952790 -28.089300 39.081100 -0.000007 -0.000012 -0.328890 0.026479 85.398500 40.985400 -0.000006 -0.000013 13.807100 -20.154600 -48.391200 11.754300 -0.000000 0.000003 -0.008064 -0.088562 -20.183200 -2.192510 6.469440 -0.000001 -173.457000 9.778740 172.305000 -39.081100 -0.002282 -0.040193 0.082535 -0.131707 31.031500 -40.985400 0.000008 0.000006 31.773400 6.197280 -73.514900 -11.754300 -0.000006 -0.000006 -0.014792 -0.136505 -22.142200
0.000000 0.000000 0.000000 0.000000 0.000000 -0.000000 126.105000 89.236700 145.270000 122.460000 -64.012200 24.504500 15.735700 0.000005 -0.000001 113.818000 84.030000 -116.481000 8.984550 -0.406207 -0.000000 3.287520 4.920390 -5.464630 16.377300 -0.000001 -0.000001 -0.240620 -14.010400 4.636500 6.456720 -0.000001 -0.000000 -1.383560 -21.802500 7.448010 12.994200 -0.242716 4.980390 -88.981300 -2.267360 -65.808100 5.348090 -0.000007 -0.000001 -58.960500 43.463400 13.566100 24.328600 0.000019 0.000005 13.342700 4.654600 -71.112700 22.291600 -0.000001 0.000005 -1.536360 5.567390 -9.555840 12.994500 -0.242716 -4.980390 89.171600 3.871190 -77.919500 -5.348130 -0.000001 -0.000004 -53.509000 45.723300 -38.256300 -24.328900 0.000322 -0.000009 -3.233400 1.063630 -108.165000 -22.291500 -0.000108 -0.000004 19.946600 5.614950 -12.282700 -2.192480 -6.469440 -0.000000 176.101000 -9.195690 -33.898000 39.081100 -0.000007 -0.000012 -0.241800 0.042736 79.978800 40.985400 -0.000006 -0.000013 14.375200 -21.739400 -52.850400 11.754300 -0.000000 0.000003 -0.007098 -0.080513 -19.854500 -2.192510 6.469440 -0.000001 -176.623000 7.562640 175.842000 -39.081100 -0.002282 -0.040193 0.055096 -0.111781 24.856700 -40.985400 0.000008 0.000006 31.027000 14.211200 -71.355800 -11.754300 -0.000006 -0.000006 -0.026180 -0.199389 -24.733100
